<svg xmlns="http://www.w3.org/2000/svg" viewBox="0 0 800 510" fill="none">
  <style>
    text { font-family: 'JetBrains Mono', ui-monospace, SFMono-Regular, Menlo, Monaco, Consolas, monospace; }
    .box { fill: #1a1a1a; stroke: #333333; stroke-width: 1.5; }
    .box-source { fill: #1a1a1a; stroke: #555555; stroke-width: 1.5; }
    .label { fill: #e8e8e8; font-size: 13px; font-weight: 600; }
    .sublabel { fill: #888888; font-size: 10px; }
    .arrow { stroke: #555555; stroke-width: 1.5; fill: none; marker-end: url(#arrowhead); }
    .zone-label { fill: #5b9bf5; font-size: 10px; font-weight: 600; letter-spacing: 0.15em; text-transform: uppercase; }
    .plane-border { fill: none; stroke: #333333; stroke-width: 1.5; }
  </style>

  <defs>
    <marker id="arrowhead" markerWidth="8" markerHeight="6" refX="7" refY="3" orient="auto">
      <polygon points="0 0, 8 3, 0 6" fill="#555555"/>
    </marker>
  </defs>

  <!-- AGENT SESSIONS zone label -->
  <text x="40" y="38" class="zone-label">Agent Sessions</text>

  <!-- Source boxes -->
  <rect x="40" y="50" width="220" height="50" class="box-source" rx="0"/>
  <text x="150" y="72" text-anchor="middle" class="label">Claude Code</text>
  <text x="150" y="89" text-anchor="middle" class="sublabel">~/.claude/projects/</text>

  <rect x="290" y="50" width="220" height="50" class="box-source" rx="0"/>
  <text x="400" y="72" text-anchor="middle" class="label">Codex</text>
  <text x="400" y="89" text-anchor="middle" class="sublabel">~/.codex/sessions/</text>

  <rect x="540" y="50" width="220" height="50" class="box-source" rx="0"/>
  <text x="650" y="72" text-anchor="middle" class="label">Gemini CLI</text>
  <text x="650" y="89" text-anchor="middle" class="sublabel">~/.gemini/</text>

  <!-- Arrows: sources down to sync -->
  <line x1="150" y1="100" x2="150" y2="148" class="arrow"/>
  <line x1="400" y1="100" x2="400" y2="148" class="arrow"/>
  <line x1="650" y1="100" x2="650" y2="148" class="arrow"/>

  <!-- SYNC zone label -->
  <text x="40" y="140" class="zone-label">Sync</text>

  <!-- Sync Engine box (wide) -->
  <rect x="150" y="150" width="500" height="55" class="box" rx="0"/>
  <text x="400" y="175" text-anchor="middle" class="label">Sync Engine</text>
  <text x="400" y="192" text-anchor="middle" class="sublabel">file watcher · JSONL parsing · 8 workers</text>

  <!-- Arrow: sync down to data layer -->
  <line x1="400" y1="205" x2="400" y2="258" class="arrow"/>

  <!-- DATA LAYER plane -->
  <rect x="30" y="248" width="740" height="140" class="plane-border" rx="0"/>
  <text x="50" y="268" class="zone-label">Data Layer</text>

  <!-- FTS5 box (left) -->
  <rect x="50" y="282" width="200" height="50" class="box" rx="0"/>
  <text x="150" y="305" text-anchor="middle" class="label">FTS5 Search</text>
  <text x="150" y="322" text-anchor="middle" class="sublabel">Porter stemming</text>

  <!-- SQLite box (center) -->
  <rect x="290" y="278" width="220" height="58" class="box" rx="0"/>
  <text x="400" y="303" text-anchor="middle" class="label">SQLite</text>
  <text x="400" y="320" text-anchor="middle" class="sublabel">WAL mode · system of record</text>

  <!-- Tool Categories box (right) -->
  <rect x="560" y="282" width="190" height="50" class="box" rx="0"/>
  <text x="655" y="305" text-anchor="middle" class="label">Tool Categories</text>
  <text x="655" y="322" text-anchor="middle" class="sublabel">normalized taxonomy</text>

  <!-- Arrows: SQLite to FTS5 and Tool Categories -->
  <line x1="290" y1="307" x2="252" y2="307" class="arrow"/>
  <line x1="510" y1="307" x2="558" y2="307" class="arrow"/>

  <!-- Arrows: data layer down to interfaces -->
  <line x1="150" y1="388" x2="150" y2="430" class="arrow"/>
  <line x1="400" y1="388" x2="400" y2="430" class="arrow"/>
  <line x1="655" y1="388" x2="655" y2="430" class="arrow"/>

  <!-- SERVER zone label -->
  <text x="40" y="422" class="zone-label">Server</text>

  <!-- Interface boxes -->
  <rect x="40" y="432" width="220" height="58" class="box" rx="0"/>
  <text x="150" y="457" text-anchor="middle" class="label">REST API</text>
  <text x="150" y="474" text-anchor="middle" class="sublabel">sessions, search, analytics</text>

  <rect x="290" y="432" width="220" height="58" class="box" rx="0"/>
  <text x="400" y="457" text-anchor="middle" class="label">SSE Events</text>
  <text x="400" y="474" text-anchor="middle" class="sublabel">real-time updates</text>

  <rect x="540" y="432" width="220" height="58" class="box" rx="0"/>
  <text x="650" y="457" text-anchor="middle" class="label">Svelte 5 SPA</text>
  <text x="650" y="474" text-anchor="middle" class="sublabel">embedded in binary</text>
</svg>
